HIERARCHY
ROOT ui
{
	 OFFSET 0 0 0
	 CHANNELS 3 XPosition YPosition Z Position
	 EndSite
	 {
	 OFFSET 0 -1 0
	 }
}
ROOT li
{
	 OFFSET 0 0 0
	 CHANNELS 3 XPosition YPosition Z Position
	 EndSite
	 {
	 OFFSET 0 -1 0
	 }
}
ROOT ul
{
	 OFFSET 0 0 0
	 CHANNELS 3 XPosition YPosition Z Position
	 EndSite
	 {
	 OFFSET 0 -1 0
	 }
}
ROOT ll
{
	 OFFSET 0 0 0
	 CHANNELS 3 XPosition YPosition Z Position
	 EndSite
	 {
	 OFFSET 0 -1 0
	 }
}
ROOT tt
{
	 OFFSET 0 0 0
	 CHANNELS 3 XPosition YPosition Z Position
	 EndSite
	 {
	 OFFSET 0 -1 0
	 }
}
ROOT tb
{
	 OFFSET 0 0 0
	 CHANNELS 3 XPosition YPosition Z Position
	 EndSite
	 {
	 OFFSET 0 -1 0
	 }
}
ROOT td
{
	 OFFSET 0 0 0
	 CHANNELS 3 XPosition YPosition Z Position
	 EndSite
	 {
	 OFFSET 0 -1 0
	 }
}
ROOT v
{
	 OFFSET 0 0 0
	 CHANNELS 3 XPosition YPosition Z Position
	 EndSite
	 {
	 OFFSET 0 -1 0
	 }
}
ROOT bn
{
	 OFFSET 0 0 0
	 CHANNELS 3 XPosition YPosition Z Position
	 EndSite
	 {
	 OFFSET 0 -1 0
	 }
}
MOTION
Frames: 18
Frame Time: 0.002
-0.003338088035583496	7.437289953231811E-4	0		0.40239218139648436	-2.37552783203125	0		-1.0496207275390625	-0.021562034606933594	0		-0.6824368286132813	-2.25543212890625	0		1.401686279296875	-0.7866599731445313	0		3.21830224609375	-0.4422119445800781	0		4.7388056640625	-0.4007528076171875	0		5.61873974609375	0.1752823486328125	0		-0.06723294830322266	5.978708984375	0		
-9.610509872436524E-4	0.0029233849048614503	0		0.4167555541992187	-2.3774658203125	0		-1.0392847900390625	-0.023476095199584962	0		-0.7539683227539062	-2.246505126953125	0		1.3560545654296876	-0.7859736938476563	0		3.25260107421875	-0.4483209228515625	0		4.7501865234375	-0.3986095581054688	0		5.623166015625	0.18250709533691406	0		-0.06783379364013672	5.98991845703125	0		
0.006441600799560547	0.009067906379699706	0		0.4461136169433594	-2.37854052734375	0		-0.9608446655273437	-0.014068098068237304	0		-0.6766346435546875	-2.2500830078125	0		1.540467529296875	-0.7806184692382813	0		3.235173583984375	-0.425884033203125	0		4.75154345703125	-0.3973477783203125	0		5.61249609375	0.18190164184570312	0		-0.07153150177001953	5.99317431640625	0		
0.0017359809875488281	0.005359281063079834	0		0.46047616577148437	-2.3784375	0		-0.9705905151367188	-0.021737083435058594	0		-0.7572788696289062	-2.250025634765625	0		1.4057882080078126	-0.7819845581054687	0		3.219382080078125	-0.4384417419433594	0		4.74781201171875	-0.404010009765625	0		5.61673681640625	0.17316825866699218	0		-0.05334003829956055	5.98623046875	0		
-0.006928029060363769	0.005721383094787598	0		0.4578102111816406	-2.381130859375	0		-0.9753052368164062	-0.026427209854125975	0		-0.694929443359375	-2.251395263671875	0		1.533065673828125	-0.7889889526367188	0		3.23570166015625	-0.4402948913574219	0		4.742234375	-0.39562130737304685	0		5.60215234375	0.1816590576171875	0		-0.05408714294433594	5.9855107421875	0		
-0.0036455910205841066	-3.0670000705868008E-6	0		0.4381132202148437	-2.38761572265625	0		-1.047927001953125	-0.02239176940917969	0		-0.7605951538085938	-2.254427001953125	0		1.40446630859375	-0.7833533935546875	0		3.23996923828125	-0.4479892578125	0		4.74954150390625	-0.39932769775390625	0		5.6153916015625	0.17190264892578125	0		-0.08887677764892578	5.980171875	0		
-0.0052145662307739255	0.007361769199371338	0		0.43262539672851563	-2.375204833984375	0		-0.9725808715820312	-0.023821250915527344	0		-0.7571663208007813	-2.250122314453125	0		1.4158355712890625	-0.7831023559570313	0		3.22846728515625	-0.43448223876953124	0		4.748896484375	-0.3999125366210938	0		5.60982080078125	0.1793790740966797	0		-0.07449169921875	5.990373046875	0		
-0.0017990050315856933	0.010717964172363282	0		0.43203140258789063	-2.37580224609375	0		-1.049201416015625	-0.023666402816772462	0		-0.7547418212890625	-2.248765625	0		1.5431636962890625	-0.7899843139648437	0		3.24275634765625	-0.44419509887695313	0		4.7433583984375	-0.3924038696289063	0		5.60920361328125	0.1798485565185547	0		-0.0562556037902832	5.98357666015625	0		
0.025529111862182617	0.0018750449419021606	0		0.4574216613769531	-2.381619384765625	0		-0.9737942504882813	-0.02500956153869629	0		-0.68539599609375	-2.259043701171875	0		1.408703125	-0.7781676635742187	0		3.236244140625	-0.43765155029296876	0		4.73770361328125	-0.3998498229980469	0		5.60861181640625	0.17936312866210938	0		-0.056924301147460936	5.98301611328125	0		
-0.006973888874053955	0.005681602001190186	0		0.40096234130859376	-2.376564453125	0		-1.0553651123046874	-0.027720821380615233	0		-0.76288623046875	-2.256791748046875	0		1.5390203857421876	-0.7939893188476562	0		3.235704833984375	-0.43812469482421873	0		4.75815283203125	-0.4015148620605469	0		5.61297314453125	0.16987208557128905	0		-0.058530319213867185	5.98450830078125	0		
0.017419761657714843	-0.006046338081359863	0		0.46334640502929686	-2.392670166015625	0		-0.9748325805664062	-0.02602926826477051	0		-0.7633491821289062	-2.257278076171875	0		1.41362451171875	-0.7851825561523438	0		3.21922802734375	-0.437394775390625	0		4.73667578125	-0.40071353149414063	0		5.59347802734375	0.16966499328613283	0		-0.09119568634033202	5.97535498046875	0		
-0.002946491003036499	7.182289958000183E-4	0		0.4110345458984375	-2.383576904296875	0		-1.0512662353515625	-0.025713283538818358	0		-0.7497871704101563	-2.26086669921875	0		1.4221666259765624	-0.7886907958984375	0		3.253733642578125	-0.44414031982421875	0		4.74421240234375	-0.404166259765625	0		5.6171171875	0.17706210327148436	0		-0.07560520935058594	5.9857548828125	0		
0.030733259201049804	0.005975555896759033	0		0.4617655944824219	-2.3764853515625	0		-0.9665786743164062	-0.019983604431152345	0		-0.7550147094726563	-2.249226806640625	0		1.4268685302734374	-0.7821223754882812	0		3.238462158203125	-0.43434609985351563	0		4.738919921875	-0.39645263671875	0		5.606736328125	0.17683819580078125	0		-0.07804421997070313	5.9873740234375	0		
-0.008604393959045411	0.004003016948699951	0		0.3994601745605469	-2.378220947265625	0		-0.9759677734375	-0.02727058410644531	0		-0.6874188842773438	-2.26128515625	0		1.542503173828125	-0.78863525390625	0		3.234098388671875	-0.43962860107421875	0		4.745544921875	-0.4028261413574219	0		5.6064248046875	0.17754605102539062	0		-0.09355162048339843	5.9761591796875	0		
-0.003906692981719971	-3.8060298562049864E-4	0		0.4551753234863281	-2.384111572265625	0		-0.9762293090820312	-0.02761639404296875	0		-0.764628173828125	-2.258854248046875	0		1.537311767578125	-0.7828994140625	0		3.223772216796875	-0.4468205261230469	0		4.735298828125	-0.4019993591308594	0		5.60616064453125	0.17728329467773438	0		-0.060820201873779296	5.98249267578125	0		
-0.011183293342590332	-0.0076154651641845705	0		0.39905059814453125	-2.37885009765625	0		-1.057461669921875	-0.03012097930908203	0		-0.7268294067382812	-2.261550048828125	0		1.5420540771484375	-0.7892359008789063	0		3.255559326171875	-0.4484075927734375	0		4.751005859375	-0.4114071044921875	0		5.61594140625	0.17594593811035156	0		-0.07905878448486328	5.9863671875	0		
0.0227318115234375	-0.0012373310327529908	0		0.4378429260253906	-2.387516357421875	0		-1.0525849609375	-0.02746433639526367	0		-0.7608844604492188	-2.254498779296875	0		1.417996337890625	-0.7802565307617187	0		3.22857275390625	-0.43238043212890626	0		4.74899755859375	-0.39761282348632815	0		5.6057861328125	0.17583123779296875	0		-0.06034342193603515	5.9798955078125	0		
-3.388409912586212E-4	0.0017342129945755005	0		0.43086819458007813	-2.37770068359375	0		-0.9766903076171874	-0.0284954891204834	0		-0.6850149536132812	-2.260526611328125	0		1.54788671875	-0.7828004760742188	0		3.2393251953125	-0.44771246337890624	0		4.75583984375	-0.4038883056640625	0		5.61076220703125	0.18358462524414063	0		-0.07945102691650391	5.98582568359375	0		
